<?xml version="1.0" standalone="no"?>
<!DOCTYPE svg PUBLIC "-//W3C//DTD SVG 20010904//EN"
 "http://www.w3.org/TR/2001/REC-SVG-20010904/DTD/svg10.dtd">
<svg version="1.0" xmlns="http://www.w3.org/2000/svg"
 width="500.000000pt" height="500.000000pt" viewBox="0 0 500.000000 500.000000"
 preserveAspectRatio="xMidYMid meet">
<metadata>
Created by potrace 1.14, written by Peter Selinger 2001-2017
</metadata>
<g transform="translate(0.000000,500.000000) scale(0.100000,-0.100000)"
fill="#000000" stroke="none">
<path d="M3030 4288 c0 -27 -2 -28 -50 -28 l-50 0 0 -50 0 -50 -55 0 -55 0 0
-55 c0 -50 -2 -55 -22 -56 -90 -4 -83 2 -86 -61 l-3 -58 -49 0 -50 0 0 -68 0
-69 -45 2 -45 1 0 -62 c0 -41 -4 -63 -12 -66 -11 -3 -59 -3 -163 1 -19 1 -20
8 -20 236 1 128 4 237 8 241 3 4 45 6 91 5 l85 -2 -3 53 c-2 29 -4 57 -5 61 0
4 -47 6 -103 5 l-103 -3 -3 -52 -3 -53 -42 -2 c-23 0 -55 0 -70 1 l-28 2 2
-78 c2 -163 5 -153 -45 -153 l-43 0 2 -53 c2 -70 -4 -82 -40 -82 l-30 0 0 -63
c0 -66 2 -63 -60 -66 -28 -1 -30 -4 -35 -51 -5 -48 -6 -50 -37 -50 -43 -1 -48
-8 -48 -68 l0 -52 -41 -5 c-38 -5 -41 -7 -41 -37 -2 -78 2 -73 -58 -73 l-55 0
0 54 c0 61 -8 66 -85 56 -22 -3 -59 -3 -82 -1 l-43 3 0 58 0 59 -37 3 -38 3
-3 52 -3 52 -47 3 -47 3 1 58 1 57 -53 0 -54 0 0 70 0 69 -63 3 -62 3 2 58 2
57 -90 0 -89 0 1 -37 c3 -82 3 -83 -41 -83 l-40 0 0 -130 0 -130 40 3 c22 2
41 -1 43 -7 2 -6 2 -59 2 -117 l-2 -106 48 0 c26 -1 52 -4 57 -7 5 -3 8 -37 7
-76 l-1 -70 93 0 93 0 0 -60 c0 -65 -4 -61 67 -64 17 0 34 -4 37 -7 4 -4 8
-35 9 -70 l2 -64 138 -3 137 -3 1 -27 c1 -15 0 -31 -1 -37 -2 -5 -2 -23 -1
-40 1 -16 2 -64 2 -105 1 -41 5 -80 10 -86 5 -6 24 -9 43 -8 20 2 38 -2 42 -7
3 -6 6 -192 5 -415 l-1 -404 90 0 c65 0 90 -4 92 -12 4 -34 6 -55 7 -75 1 -20
7 -23 41 -23 31 0 40 -4 41 -17 4 -66 4 -171 1 -186 -3 -11 -13 -17 -26 -16
-59 4 -56 14 -56 -171 0 -129 -3 -170 -12 -172 -7 0 -24 -1 -38 -2 l-25 -1 -3
-124 c-1 -69 -5 -127 -7 -129 -2 -3 -26 -5 -52 -6 l-48 -1 -3 -53 -3 -52 916
0 915 0 -2 253 -3 252 -35 2 c-19 0 -37 2 -40 2 -3 1 -5 76 -5 168 l0 168 -47
3 -48 3 0 40 c0 24 -5 39 -12 40 -7 1 -32 2 -56 3 -24 1 -46 6 -50 13 -4 6 -6
103 -6 215 1 111 0 210 -2 218 -3 12 -17 16 -57 15 l-52 0 -1 383 c0 211 3
385 6 387 4 3 121 5 259 6 159 2 254 6 258 13 4 5 5 32 4 59 -1 26 2 54 8 60
5 7 31 12 61 11 56 -1 57 1 62 81 l3 40 65 0 65 -1 5 81 5 80 57 -3 57 -2 -1
305 0 305 -59 0 c-65 0 -63 3 -59 -82 l2 -38 -71 0 -71 0 0 -65 c0 -36 -3 -65
-7 -66 -5 -1 -32 -3 -62 -5 -30 -2 -57 -6 -59 -9 -3 -3 -5 -18 -4 -35 0 -17
-5 -30 -11 -30 -8 0 -7 -3 2 -9 8 -5 11 -16 8 -25 -5 -13 -26 -16 -131 -16
l-125 0 -3 -52 -3 -53 -37 -3 -38 -3 0 -54 c0 -30 -4 -56 -9 -59 -8 -6 -169
-9 -321 -7 l-65 1 0 115 c0 69 4 115 10 116 6 1 25 2 44 2 24 2 36 8 41 22 6
17 6 121 0 135 -3 8 1 95 6 99 2 2 26 4 54 4 l50 0 0 103 c0 76 3 104 13 105
6 0 154 1 327 2 l315 2 3 54 c2 33 -1 57 -8 61 -7 4 -34 6 -61 5 -48 -2 -56 3
-50 38 2 10 1 10 -281 12 l-258 1 0 -28z"/>
</g>
</svg>
